<svg width="22.000000" height="12.000000" viewBox="0 0 22 12" fill="none" xmlns="http://www.w3.org/2000/svg" xmlns:xlink="http://www.w3.org/1999/xlink">
	<desc>
			Created with Pixso.
	</desc>
	<defs/>
	<path id="Vector" d="M8.82 11C7.38 11 6.21 9.88 6.21 8.5C6.21 7.11 7.38 6 8.82 6C10.26 6 11.43 7.11 11.43 8.5C11.43 9.88 10.26 11 8.82 11ZM1 11C1 11 1 4.9 1 1M6.21 8.5L6.21 3.5C6.21 2.83 6.49 2.2 6.98 1.73C7.47 1.26 8.13 1 8.82 1L10.56 1M15.78 6L18.39 6L21 6M18.39 3.5L18.39 6M18.39 6L18.39 8.5" stroke="#FFFFFF" stroke-opacity="1.000000" stroke-width="2.000000" stroke-linejoin="round" stroke-linecap="round"/>
</svg>
