<svg width="26.000000" height="26.565186" viewBox="0 0 26 26.5652" fill="none" xmlns="http://www.w3.org/2000/svg" xmlns:xlink="http://www.w3.org/1999/xlink">
	<desc>
			Created with Pixso.
	</desc>
	<defs/>
	<path id="Icon" d="M1 17.56L1 10.96C1 9.97 1 9.47 1.15 9.04C1.29 8.66 1.51 8.31 1.8 8.03C2.13 7.7 2.58 7.5 3.47 7.08L15.3 1.62C16.31 1.16 16.81 0.93 17.22 1C17.57 1.06 17.89 1.26 18.09 1.56C18.33 1.9 18.33 2.45 18.33 3.56L18.33 8.23M25 21.29C25 22.79 25 23.53 24.7 24.1C24.45 24.61 24.04 25.01 23.54 25.27C22.97 25.56 22.22 25.56 20.73 25.56L5.26 25.56C3.77 25.56 3.02 25.56 2.45 25.27C1.95 25.01 1.54 24.61 1.29 24.1C1 23.53 1 22.79 1 21.29L1 12.49C1 11 1 10.25 1.29 9.68C1.54 9.18 1.95 8.77 2.45 8.52C3.02 8.23 3.77 8.23 5.26 8.23L20.73 8.23C22.22 8.23 22.97 8.23 23.54 8.52C24.04 8.77 24.45 9.18 24.7 9.68C25 10.25 25 11 25 12.49L25 21.29ZM19 16.89L19.01 16.89M19 17.56C18.63 17.56 18.33 17.26 18.33 16.89C18.33 16.53 18.63 16.23 19 16.23C19.36 16.23 19.66 16.53 19.66 16.89C19.66 17.26 19.36 17.56 19 17.56Z" stroke="#FFFFFF" stroke-opacity="1.000000" stroke-width="2.000000" stroke-linejoin="round" stroke-linecap="round"/>
</svg>
