<svg width="26.008057" height="26.008179" viewBox="0 0 26.0081 26.0082" fill="none" xmlns="http://www.w3.org/2000/svg" xmlns:xlink="http://www.w3.org/1999/xlink">
	<desc>
			Created with Pixso.
	</desc>
	<defs/>
	<path d="M13 21L13.01 21M9.23 17.23C10.23 16.23 11.58 15.67 13 15.67C14.41 15.67 15.77 16.23 16.77 17.23M10.61 10.6L5.46 13.46C6.87 12.04 8.66 11.05 10.61 10.6ZM16.16 10.81C17.82 11.33 19.32 12.24 20.54 13.48M6.41 6.41L1.69 9.69C3.05 8.32 4.65 7.21 6.41 6.41ZM10.55 5.19C13.03 4.8 15.58 5.01 17.97 5.79C20.36 6.57 22.53 7.9 24.31 9.68M1 1L25 25" stroke="#FFFFFF" stroke-opacity="1.000000" stroke-width="2.000000" stroke-linejoin="round" stroke-linecap="round"/>
</svg>
