<svg width="80.000000" height="151.000000" viewBox="0 0 80 151" fill="none" xmlns="http://www.w3.org/2000/svg" xmlns:xlink="http://www.w3.org/1999/xlink">
	<desc>
			Created with Pixso.
	</desc>
	<defs>
		<clipPath id="clip23_143">
			<rect id="Frame 26" width="80.000000" height="151.000000" fill="white" fill-opacity="0"/>
		</clipPath>
	</defs>
	<g clip-path="url(#clip23_143)">
		<mask id="mask_23_147" fill="white">
			<path id="Subtract" d="M5.20361 0L-549 0C-560.046 0 -569 8.9543 -569 20L-569 131C-569 142.046 -560.046 151 -549 151L60 151C71.0457 151 80 142.046 80 131L80 75C80 69.4771 75.5229 65 70 65L33 65C21.9543 65 13 56.0457 13 45L13 10C13 5.34805 9.85547 0 5.20361 0Z" clip-rule="evenodd" fill="" fill-opacity="1.000000" fill-rule="evenodd"/>
		</mask>
		<path id="Subtract" d="M-549 0L5.20361 0C9.85547 0 13 5.34805 13 10L13 45C13 56.0457 21.9543 65 33 65L70 65C75.5229 65 80 69.4771 80 75L80 131C80 142.046 71.0457 151 60 151L-549 151C-560.046 151 -569 142.046 -569 131L-569 20C-569 8.9543 -560.046 0 -549 0ZM-549 1L5.20361 1Q5.91817 1 6.58184 1.1838Q8.52512 1.72197 10.032 3.83598Q10.996 5.18838 11.4878 6.69494Q12 8.26387 12 10L12 45Q12 49.3487 13.5374 53.0606Q15.0751 56.7735 18.1509 59.8492Q21.2267 62.925 24.9395 64.4627Q28.6514 66 33 66L70 66Q71.8643 66 73.4554 66.6592Q75.0462 67.3182 76.364 68.636Q77.6821 69.9542 78.3411 71.5453Q79 73.1362 79 75L79 131Q79 134.935 77.6089 138.294Q76.2176 141.652 73.4351 144.435Q70.6539 147.216 67.2967 148.608Q63.9369 150 60 150L-549 150Q-552.935 150 -556.294 148.609Q-559.653 147.217 -562.435 144.435Q-565.218 141.652 -566.609 138.294Q-568 134.935 -568 131L-568 20Q-568 16.0649 -566.609 12.7062Q-565.218 9.34743 -562.435 6.56497Q-559.653 3.78258 -556.294 2.39134Q-552.935 1 -549 1Z" clip-rule="evenodd" fill="#FFFFFF" fill-opacity="1.000000" fill-rule="evenodd"/>
	</g>
</svg>
