<svg width="68.000000" height="71.000000" viewBox="0 0 68 71" fill="none" xmlns="http://www.w3.org/2000/svg" xmlns:xlink="http://www.w3.org/1999/xlink">
	<desc>
			Created with Pixso.
	</desc>
	<defs>
		<clipPath id="clip14_163">
			<rect id="Frame 25" width="68.000000" height="71.000000" fill="white" fill-opacity="0"/>
		</clipPath>
	</defs>
	<g clip-path="url(#clip14_163)">
		<path id="Subtract" d="M-477.998 0L1422 0C1427.52 0 1432 4.47714 1432 10L1432 95C1431.48 81.6565 1420.47 71 1407 71L1148.52 71C1143.46 71 1139.3 67.1688 1137.81 62.3276C1131.54 41.8731 1112.51 27 1090 27L63 27C40.4914 27 21.4566 41.8731 15.1874 62.3276C13.7035 67.1689 9.54449 71 4.48096 71L-463 71C-476.472 71 -487.455 81.6565 -487.98 95L-487.998 10.0021C-487.998 4.47842 -483.522 0 -477.998 0Z" clip-rule="evenodd" fill="#7027E2" fill-opacity="1.000000" fill-rule="evenodd"/>
	</g>
</svg>
