<svg width="26.000000" height="26.000000" viewBox="0 0 26 26" fill="none" xmlns="http://www.w3.org/2000/svg" xmlns:xlink="http://www.w3.org/1999/xlink">
	<desc>
			Created with Pixso.
	</desc>
	<defs>
		<clipPath id="clip14_163">
			<rect id="Frame 25" width="26.000000" height="26.000000" fill="white" fill-opacity="0"/>
		</clipPath>
	</defs>
	<g clip-path="url(#clip14_163)">
		<path id="Subtract" d="M10.0021 -70L1910 -70C1915.52 -70 1920 -65.5229 1920 -60L1920 25C1919.48 11.6565 1908.47 1 1895 1L1636.52 1C1631.46 1 1627.3 -2.83118 1625.81 -7.67239C1619.54 -28.1269 1600.51 -43 1578 -43L551 -43C528.491 -43 509.457 -28.1269 503.187 -7.67236C501.703 -2.83112 497.544 1 492.481 1L25 1C11.5278 1 0.544538 11.6565 0.0196347 25L0.00206709 -59.9979C0.00206709 -65.5216 4.47841 -70 10.0021 -70Z" clip-rule="evenodd" fill="#7027E2" fill-opacity="1.000000" fill-rule="evenodd"/>
	</g>
</svg>
