<svg width="26.000000" height="24.000000" viewBox="0 0 26 24" fill="none" xmlns="http://www.w3.org/2000/svg" xmlns:xlink="http://www.w3.org/1999/xlink">
	<desc>
			Created with Pixso.
	</desc>
	<defs>
		<clipPath id="clip14_163">
			<rect id="Frame 25" width="26.000000" height="24.000000" fill="white" fill-opacity="0"/>
		</clipPath>
	</defs>
	<g clip-path="url(#clip14_163)">
		<path id="Subtract" d="M-1884 -72L16 -72C21.5228 -72 26 -67.5229 26 -62L26 23C25.4751 9.65646 14.4722 -1 1 -1L-257.481 -1C-262.545 -1 -266.704 -4.83118 -268.188 -9.67239C-274.457 -30.1269 -293.491 -45 -316 -45L-1343 -45C-1365.51 -45 -1384.54 -30.1269 -1390.81 -9.67236C-1392.3 -4.83112 -1396.46 -1 -1401.52 -1L-1869 -1C-1882.47 -1 -1893.46 9.65646 -1893.98 23L-1894 -61.9979C-1894 -67.5216 -1889.52 -72 -1884 -72Z" clip-rule="evenodd" fill="#7027E2" fill-opacity="1.000000" fill-rule="evenodd"/>
	</g>
</svg>
