<svg width="1920.000000" height="24.000000" viewBox="0 0 1920 24" fill="none" xmlns="http://www.w3.org/2000/svg" xmlns:xlink="http://www.w3.org/1999/xlink">
	<desc>
			Created with Pixso.
	</desc>
	<defs>
		<clipPath id="clip14_163">
			<rect id="Frame 25" width="1920.000000" height="24.000000" fill="white" fill-opacity="0"/>
		</clipPath>
	</defs>
	<g clip-path="url(#clip14_163)">
		<path id="Subtract" d="M10.0021 -71L1910 -71C1915.52 -71 1920 -66.5229 1920 -61L1920 24C1919.48 10.6565 1908.47 0 1895 0L1636.52 0C1631.46 0 1627.3 -3.83118 1625.81 -8.67239C1619.54 -29.1269 1600.51 -44 1578 -44L551 -44C528.491 -44 509.457 -29.1269 503.187 -8.67236C501.703 -3.83112 497.544 0 492.481 0L25 0C11.5278 0 0.544538 10.6565 0.0196345 24L0.00206708 -60.9979C0.00206708 -66.5216 4.47841 -71 10.0021 -71Z" clip-rule="evenodd" fill="#7027E2" fill-opacity="1.000000" fill-rule="evenodd"/>
	</g>
</svg>
