<svg width="400.000000" height="30.630630" viewBox="0 0 400 30.6306" fill="none" xmlns="http://www.w3.org/2000/svg" xmlns:xlink="http://www.w3.org/1999/xlink">
	<desc>
			Created with Pixso.
	</desc>
	<defs/>
	<path d="M44.16 0.62L44.16 30L36.22 30L36.22 3.52L37.99 3.72L26.31 30L17.85 30L6.12 3.79L7.93 3.6L7.93 30L0 30L0 0.62L12.89 0.62L23.73 25.85L20.51 25.85L31.26 0.62L44.16 0.62ZM57.75 16.88C57.75 18.21 58.01 19.37 58.52 20.36C59.06 21.33 59.83 22.07 60.86 22.6C61.9 23.12 63.18 23.38 64.68 23.38C66.21 23.38 67.49 23.12 68.51 22.6C69.53 22.07 70.3 21.33 70.81 20.36C71.32 19.37 71.57 18.21 71.57 16.88L71.57 0.62L79.96 0.62L79.96 17.27C79.96 19.96 79.31 22.31 78.02 24.32C76.76 26.3 74.99 27.86 72.7 28.98C70.42 30.08 67.75 30.63 64.68 30.63C61.65 30.63 58.97 30.08 56.66 28.98C54.38 27.86 52.59 26.3 51.31 24.32C50.04 22.31 49.41 19.96 49.41 17.27L49.41 0.62L57.75 0.62L57.75 16.88ZM83.82 20.36L92.32 20.36C92.46 21.17 92.85 21.88 93.49 22.48C94.14 23.08 95 23.55 96.07 23.89C97.17 24.2 98.46 24.36 99.94 24.36C101.98 24.36 103.59 24.11 104.78 23.61C105.96 23.09 106.55 22.33 106.55 21.34C106.55 20.59 106.21 20 105.54 19.58C104.87 19.16 103.58 18.86 101.67 18.68L96.03 18.17C91.87 17.8 88.84 16.89 86.96 15.43C85.08 13.94 84.14 11.94 84.14 9.43C84.14 7.4 84.75 5.67 85.96 4.26C87.19 2.85 88.91 1.8 91.12 1.09C93.34 0.36 95.94 0 98.89 0C101.79 0 104.37 0.4 106.63 1.21C108.89 1.99 110.67 3.12 111.99 4.58C113.33 6.04 114.06 7.74 114.17 9.67L105.7 9.67C105.59 8.96 105.25 8.36 104.66 7.87C104.09 7.35 103.31 6.95 102.32 6.69C101.32 6.41 100.13 6.26 98.73 6.26C96.85 6.26 95.36 6.51 94.26 7.01C93.16 7.48 92.61 8.18 92.61 9.12C92.61 9.8 92.93 10.35 93.57 10.77C94.24 11.18 95.44 11.47 97.16 11.63L103.16 12.22C106.04 12.48 108.34 12.93 110.05 13.59C111.77 14.21 113.02 15.09 113.8 16.21C114.58 17.33 114.97 18.73 114.97 20.4C114.97 22.47 114.34 24.27 113.08 25.81C111.81 27.32 110.04 28.51 107.76 29.37C105.47 30.21 102.81 30.63 99.78 30.63C96.66 30.63 93.91 30.21 91.52 29.37C89.15 28.51 87.3 27.31 85.96 25.77C84.61 24.2 83.9 22.4 83.82 20.36ZM119.15 0.62L127.49 0.62L127.49 30L119.15 30L119.15 0.62ZM166.69 17.7C166.39 20.28 165.48 22.56 163.95 24.52C162.42 26.45 160.4 27.95 157.9 29.02C155.43 30.09 152.59 30.63 149.36 30.63C145.84 30.63 142.77 29.99 140.13 28.71C137.5 27.43 135.45 25.64 133.97 23.34C132.52 21.04 131.79 18.37 131.79 15.31C131.79 12.26 132.52 9.58 133.97 7.28C135.45 4.98 137.5 3.19 140.13 1.91C142.77 0.63 145.84 0 149.36 0C152.59 0 155.43 0.53 157.9 1.6C160.4 2.67 162.42 4.19 163.95 6.14C165.48 8.08 166.39 10.34 166.69 12.92L158.31 12.92C158.04 11.67 157.52 10.61 156.74 9.75C155.96 8.86 154.94 8.18 153.67 7.71C152.44 7.24 151 7.01 149.36 7.01C147.48 7.01 145.86 7.35 144.49 8.02C143.12 8.68 142.07 9.63 141.34 10.88C140.62 12.11 140.25 13.59 140.25 15.31C140.25 17.03 140.62 18.52 141.34 19.78C142.07 21 143.12 21.96 144.49 22.64C145.86 23.29 147.48 23.61 149.36 23.61C151 23.61 152.44 23.39 153.67 22.95C154.94 22.5 155.96 21.84 156.74 20.95C157.52 20.06 158.04 18.98 158.31 17.7L166.69 17.7ZM212.73 0.62L212.73 30L204.39 30L204.39 4.15L208.14 7.83L185.33 7.83L189.08 4.15L189.08 30L180.74 30L180.74 0.62L212.73 0.62ZM235.32 0.62C237.85 0.62 240.02 1.04 241.85 1.88C243.7 2.71 245.11 3.9 246.08 5.44C247.05 6.95 247.53 8.73 247.53 10.77C247.53 12.78 247.05 14.55 246.08 16.09C245.11 17.61 243.7 18.78 241.85 19.62C240.02 20.45 237.85 20.87 235.32 20.87L222.23 20.87L222.23 14.37L234.8 14.37C236.14 14.37 237.19 14.06 237.94 13.43C238.69 12.78 239.07 11.89 239.07 10.77C239.07 9.62 238.69 8.73 237.94 8.1C237.19 7.45 236.14 7.12 234.8 7.12L222.95 7.12L226.7 3.36L226.7 30L218.36 30L218.36 0.62L235.32 0.62ZM267.78 30.63C264.21 30.63 261.06 29.99 258.35 28.71C255.66 27.43 253.57 25.64 252.06 23.34C250.59 21.04 249.85 18.37 249.85 15.31C249.85 12.26 250.59 9.58 252.06 7.28C253.57 4.98 255.66 3.19 258.35 1.91C261.06 0.63 264.21 0 267.78 0C271.38 0 274.52 0.63 277.21 1.91C279.9 3.19 281.99 4.98 283.5 7.28C285 9.58 285.75 12.26 285.75 15.31C285.75 18.37 285 21.04 283.5 23.34C281.99 25.64 279.9 27.43 277.21 28.71C274.52 29.99 271.38 30.63 267.78 30.63ZM267.78 23.38C269.74 23.38 271.43 23.05 272.86 22.4C274.28 21.75 275.37 20.82 276.12 19.62C276.9 18.42 277.29 16.98 277.29 15.31C277.29 13.64 276.9 12.2 276.12 11C275.37 9.8 274.28 8.87 272.86 8.22C271.43 7.57 269.74 7.24 267.78 7.24C265.85 7.24 264.17 7.57 262.74 8.22C261.32 8.87 260.22 9.8 259.44 11C258.66 12.2 258.27 13.64 258.27 15.31C258.27 16.98 258.66 18.42 259.44 19.62C260.22 20.82 261.32 21.75 262.74 22.4C264.17 23.05 265.85 23.38 267.78 23.38ZM307.02 0.62C309.55 0.62 311.72 1.04 313.55 1.88C315.4 2.71 316.81 3.9 317.78 5.44C318.75 6.95 319.23 8.73 319.23 10.77C319.23 12.78 318.75 14.55 317.78 16.09C316.81 17.61 315.4 18.78 313.55 19.62C311.72 20.45 309.55 20.87 307.02 20.87L293.93 20.87L293.93 14.37L306.5 14.37C307.84 14.37 308.89 14.06 309.64 13.43C310.39 12.78 310.77 11.89 310.77 10.77C310.77 9.62 310.39 8.73 309.64 8.1C308.89 7.45 307.84 7.12 306.5 7.12L294.65 7.12L298.4 3.36L298.4 30L290.06 30L290.06 0.62L307.02 0.62ZM322.88 30L322.88 0.62L331.22 0.62L331.22 27.26L327.47 23.61L339.24 23.61C340.61 23.61 341.67 23.27 342.42 22.6C343.2 21.92 343.59 21 343.59 19.85C343.59 18.68 343.2 17.76 342.42 17.11C341.67 16.46 340.61 16.13 339.24 16.13L326.74 16.13L326.74 9.71L339.76 9.71C342.31 9.71 344.5 10.14 346.33 11C348.18 11.84 349.59 13.01 350.56 14.53C351.55 16.04 352.05 17.82 352.05 19.85C352.05 21.89 351.55 23.68 350.56 25.22C349.59 26.73 348.18 27.91 346.33 28.75C344.5 29.58 342.31 30 339.76 30L322.88 30ZM354.55 0.62L362.89 0.62L362.89 30L354.55 30L354.55 0.62ZM388.99 15.62L389.68 14.1C392.02 14.15 393.94 14.5 395.44 15.15C396.97 15.78 398.12 16.67 398.87 17.82C399.62 18.94 400 20.25 400 21.73C400 23.33 399.62 24.75 398.87 26C398.12 27.23 396.99 28.21 395.48 28.94C394 29.65 392.15 30 389.92 30L367.6 30L369.93 14.92L367.6 0.62L389.12 0.62C391.91 0.62 394.09 1.26 395.64 2.54C397.2 3.79 397.98 5.54 397.98 7.79C397.98 9.02 397.68 10.19 397.09 11.32C396.5 12.44 395.55 13.39 394.23 14.17C392.94 14.93 391.2 15.41 388.99 15.62ZM375.86 28.12L372.63 24.32L387.66 24.32C388.87 24.32 389.81 24.03 390.49 23.46C391.16 22.88 391.49 22.09 391.49 21.07C391.49 20.05 391.13 19.24 390.4 18.64C389.68 18.01 388.61 17.7 387.18 17.7L374.77 17.7L374.77 12.14L386.05 12.14C387.02 12.14 387.83 11.86 388.47 11.32C389.14 10.74 389.48 9.97 389.48 9C389.48 8.22 389.2 7.58 388.63 7.08C388.07 6.56 387.26 6.3 386.21 6.3L372.67 6.3L375.86 2.5L377.91 14.92L375.86 28.12Z" fill="#FFFFFF" fill-opacity="1.000000" fill-rule="nonzero"/>
</svg>
