<svg width="50.000000" height="50.000000" viewBox="0 0 50 50" fill="none" xmlns="http://www.w3.org/2000/svg" xmlns:xlink="http://www.w3.org/1999/xlink">
	<desc>
			Created with Pixso.
	</desc>
	<defs/>
	<rect id="Telegram_logo" rx="-0.500000" width="49.000000" height="49.000000" transform="translate(0.500000 0.500000)" fill="#FFFFFF" fill-opacity="0"/>
	<rect id="bg" x="3.125000" y="3.125000" rx="10.000000" width="43.750000" height="43.750000" fill="#FFFFFF" fill-opacity="1.000000"/>
	<path id="vector" d="M35.91 15.95C36.11 14.69 34.91 13.69 33.79 14.19L11.5 23.97C10.7 24.32 10.76 25.54 11.59 25.8L16.19 27.27C17.06 27.55 18.01 27.4 18.78 26.87L29.14 19.71C29.46 19.5 29.8 19.94 29.53 20.22L22.07 27.91C21.35 28.65 21.49 29.92 22.36 30.46L30.71 35.7C31.65 36.29 32.85 35.7 33.03 34.57L35.91 15.95Z" fill="#7027E2" fill-opacity="1.000000" fill-rule="evenodd"/>
</svg>
