<svg width="50.000000" height="50.000000" viewBox="0 0 50 50" fill="none" xmlns="http://www.w3.org/2000/svg" xmlns:xlink="http://www.w3.org/1999/xlink">
	<desc>
			Created with Pixso.
	</desc>
	<defs/>
	<rect id="Vk_logo" rx="-0.500000" width="49.000000" height="49.000000" transform="translate(0.500000 0.500000)" fill="#FFFFFF" fill-opacity="0"/>
	<rect id="bg" x="3.125000" y="3.125000" rx="10.000000" width="43.750000" height="43.750000" fill="#FFFFFF" fill-opacity="1.000000"/>
	<path id="vk" d="M35.81 28.64C35.48 28.19 35.4 27.72 35.58 27.25C36.04 26 42.73 18.07 39.94 18.07C38.03 18.09 35.73 18.07 33.89 18.07C33.55 18.15 33.33 18.33 33.2 18.69C32.12 21.17 30.81 24.18 28.89 26.12C28.63 26.33 28.47 26.32 28.19 26.25C26.84 24.82 28.28 19.96 27.46 18.03C27.29 17.66 26.94 17.49 26.58 17.39C24.74 16.95 20.56 17.21 19.88 18.09C19.68 18.34 19.65 18.48 19.8 18.5C20.45 18.61 20.91 18.85 21.18 19.24C21.69 20.37 22.07 26.36 20.56 26.36C19.05 26.36 16.63 20.48 15.96 18.85C15.78 18.35 15.33 18.07 14.85 17.99L10.4 18.02C9.61 18.02 9.18 18.41 9.45 19.19C11.77 24.95 16.85 36.11 24.64 35.83C25.42 35.83 26.76 36.13 27.37 35.46C28.21 34.35 27.19 32.37 28.63 31.61C28.99 31.42 29.36 31.58 29.67 31.82C31.27 33.04 32.12 35.17 34.09 35.82C34.44 35.93 34.74 35.96 35 35.9L39.16 35.84C39.94 35.84 40.7 35.49 40.54 34.57C39.93 32.59 37.51 30.55 35.81 28.64Z" fill="#7027E2" fill-opacity="1.000000" fill-rule="nonzero"/>
</svg>
