<svg width="50.000000" height="50.000000" viewBox="0 0 50 50" fill="none" xmlns="http://www.w3.org/2000/svg" xmlns:xlink="http://www.w3.org/1999/xlink">
	<desc>
			Created with Pixso.
	</desc>
	<defs/>
	<rect id="Whatsapp_logo" rx="-0.500000" width="49.000000" height="49.000000" transform="translate(0.500000 0.500000)" fill="#FFFFFF" fill-opacity="0"/>
	<rect id="bg" x="3.125000" y="3.125000" rx="10.000000" width="43.750000" height="43.750000" fill="#FFFFFF" fill-opacity="1.000000"/>
	<path id="Vector" d="M23.79 11.05C19.41 11.73 16.08 13.81 13.73 17.31C12.75 18.77 12.12 20.26 11.7 22.12C11.53 22.88 11.5 23.31 11.5 24.97C11.49 26.68 11.52 27.04 11.71 27.89C12.08 29.53 12.7 31.06 13.57 32.47L13.89 32.99L13.23 35.41C12.86 36.74 12.54 37.9 12.51 37.98C12.48 38.06 12.51 38.12 12.58 38.12C12.65 38.12 13.86 37.82 15.27 37.46C17.76 36.81 17.84 36.8 18.08 36.95C18.57 37.27 20.4 38.11 21.12 38.35C22.65 38.85 23.61 38.99 25.43 39C27.29 39 28.11 38.88 29.68 38.38C31.89 37.68 33.64 36.61 35.35 34.92C37.38 32.9 38.62 30.66 39.24 27.87C39.51 26.62 39.58 24.35 39.38 23C38.7 18.46 35.79 14.46 31.67 12.43C29.69 11.45 27.6 10.97 25.35 11C24.62 11 23.92 11.02 23.79 11.05ZM20.73 17.31C20.85 17.36 21.01 17.5 21.08 17.61C21.29 17.95 22.67 21.32 22.67 21.51C22.67 21.8 22.34 22.34 21.79 22.95C21.43 23.36 21.27 23.61 21.27 23.79C21.27 24.41 23.2 26.71 24.59 27.74C25.38 28.32 27.27 29.29 27.63 29.29C27.87 29.29 28.21 28.95 29.1 27.82C29.7 27.07 29.73 27.04 30.04 27.09C30.21 27.12 31.19 27.56 32.2 28.06L34.04 28.97L34.07 29.43C34.14 30.49 33.74 31.44 32.99 32.02C31.89 32.88 30.57 33.23 29.25 33.02C27.63 32.78 24.98 31.64 23.47 30.55C20.6 28.49 17.74 24.86 17.09 22.46C16.92 21.84 16.93 20.63 17.11 19.95C17.39 18.89 18.24 17.72 18.97 17.38C19.4 17.19 20.38 17.15 20.73 17.31Z" fill="#7027E2" fill-opacity="1.000000" fill-rule="evenodd"/>
</svg>
