<svg width="54.000000" height="54.000000" viewBox="0 0 54 54" fill="none" xmlns="http://www.w3.org/2000/svg" xmlns:xlink="http://www.w3.org/1999/xlink">
	<desc>
			Created with Pixso.
	</desc>
	<defs>
		<clipPath id="clip40_93">
			<rect rx="-0.500000" width="53.000000" height="53.000000" transform="translate(0.500000 0.500000)" fill="white" fill-opacity="0"/>
		</clipPath>
	</defs>
	<rect rx="-0.500000" width="53.000000" height="53.000000" transform="translate(0.500000 0.500000)" fill="#FFFFFF" fill-opacity="0"/>
	<g clip-path="url(#clip40_93)">
		<path d="M49.88 8.79C50.84 8.31 51.26 7.17 50.82 6.19C50.39 5.21 49.27 4.75 48.27 5.13L42.75 7.24C42.18 7.45 40.89 8 40.34 9.37C40 10.2 39.95 11.13 40.18 11.99L34.4 17.38C34.28 16.81 34.08 16.24 33.81 15.68C32.47 12.92 29.27 11.76 26.35 12.1C23.28 12.46 20.2 14.44 18.58 18.29C18.57 18.33 18.55 18.37 18.54 18.42C17.56 21.27 15.32 22.82 12.15 23.3C6.59 24.15 2.57 29.17 3.03 34.77C3.78 43.97 11.04 51.21 20.26 51.96C25.87 52.41 30.91 48.41 31.76 42.86C32.02 41.13 32.5 39.58 33.24 38.46C33.95 37.41 34.87 36.74 36.23 36.59C39.47 36.22 41.49 34.27 41.99 31.88C42.44 29.73 41.58 27.11 39.22 26.13C37.09 25.23 35.33 26 34.32 26.44C34.26 26.46 34.2 26.49 34.15 26.51C33.12 26.95 32.81 27.01 32.27 26.73C31.72 26.46 31.55 26.12 31.51 25.95C31.48 25.81 31.49 25.62 31.72 25.37L42.77 15.06C44 15.63 45.51 15.41 46.53 14.4C47.42 13.51 48.03 12.4 48.31 11.18L48.73 9.37L49.88 8.79ZM28.89 22.52C28.86 22.55 28.82 22.59 28.79 22.63C27.7 23.79 27.26 25.32 27.59 26.81C27.93 28.33 29 29.58 30.46 30.31C32.75 31.46 34.61 30.67 35.73 30.19C36.9 29.69 37.18 29.62 37.67 29.82C37.83 29.89 38.22 30.3 38.06 31.06C37.95 31.58 37.49 32.41 35.78 32.61C33.06 32.91 31.15 34.36 29.9 36.25C28.69 38.06 28.09 40.26 27.79 42.26C27.26 45.74 24.08 48.25 20.59 47.97C13.32 47.38 7.62 41.69 7.03 34.44C6.75 30.96 9.26 27.79 12.76 27.26C17.02 26.61 20.73 24.32 22.31 19.78C23.38 17.29 25.21 16.26 26.81 16.08C28.57 15.87 29.82 16.64 30.2 17.43C30.93 18.92 30.51 20.9 28.92 22.49C28.91 22.5 28.9 22.51 28.89 22.52ZM21.3 29.61C20.52 28.83 19.24 28.83 18.46 29.61C17.68 30.4 17.68 31.66 18.46 32.45L21.47 35.45C22.26 36.23 23.53 36.23 24.31 35.45C25.09 34.67 25.09 33.4 24.31 32.62L21.3 29.61ZM22.3 38.63L19.29 35.62C18.51 34.84 17.24 34.84 16.45 35.62C15.67 36.4 15.67 37.67 16.45 38.45L19.46 41.46C20.25 42.24 21.52 42.24 22.3 41.46C23.09 40.68 23.09 39.41 22.3 38.63Z" fill="#7027E2" fill-opacity="1.000000" fill-rule="evenodd"/>
	</g>
</svg>
